<mxfile host="app.diagrams.net" agent="Mozilla/5.0 (Windows NT 10.0; Win64; x64) AppleWebKit/537.36 (KHTML, like Gecko) Chrome/133.0.0.0 Safari/537.36 Edg/133.0.0.0" version="26.0.16">
  <diagram name="Page-1" id="RXTe7mRwtFjgz-FgRN3l">
    <mxGraphModel dx="2283" dy="2563" grid="1" gridSize="10" guides="1" tooltips="1" connect="1" arrows="1" fold="1" page="1" pageScale="1" pageWidth="1200" pageHeight="1920" math="0" shadow="0">
      <root>
        <mxCell id="0" />
        <mxCell id="1" parent="0" />
        <mxCell id="v5AVj4iJz0QY_WfGFKWx-2" value="" style="rounded=0;whiteSpace=wrap;html=1;dashed=1;fillColor=none;dashPattern=1 2;" parent="1" vertex="1">
          <mxGeometry x="-10" y="90" width="180" height="660" as="geometry" />
        </mxCell>
        <mxCell id="v5AVj4iJz0QY_WfGFKWx-4" value="&lt;b&gt;&lt;font style=&quot;font-size: 24px;&quot;&gt;Sources&lt;/font&gt;&lt;/b&gt;" style="rounded=0;whiteSpace=wrap;html=1;strokeColor=none;fillColor=none;" parent="1" vertex="1">
          <mxGeometry x="19" y="50" width="120" height="50" as="geometry" />
        </mxCell>
        <mxCell id="v5AVj4iJz0QY_WfGFKWx-6" value="" style="rounded=0;whiteSpace=wrap;html=1;dashed=1;fillColor=none;dashPattern=1 2;" parent="1" vertex="1">
          <mxGeometry x="190" y="90" width="840" height="660" as="geometry" />
        </mxCell>
        <mxCell id="v5AVj4iJz0QY_WfGFKWx-7" value="&lt;b&gt;&lt;font style=&quot;font-size: 24px;&quot;&gt;Data Warehouse&lt;/font&gt;&lt;/b&gt;" style="rounded=0;whiteSpace=wrap;html=1;strokeColor=none;fillColor=none;" parent="1" vertex="1">
          <mxGeometry x="500" y="40" width="200" height="50" as="geometry" />
        </mxCell>
        <mxCell id="v5AVj4iJz0QY_WfGFKWx-9" value="" style="rounded=0;whiteSpace=wrap;html=1;dashed=1;fillColor=none;dashPattern=1 2;" parent="1" vertex="1">
          <mxGeometry x="1073.65" y="87.5" width="200" height="662.5" as="geometry" />
        </mxCell>
        <mxCell id="v5AVj4iJz0QY_WfGFKWx-10" value="&lt;span style=&quot;font-size: 24px;&quot;&gt;&lt;b&gt;Consume&lt;/b&gt;&lt;/span&gt;" style="rounded=0;whiteSpace=wrap;html=1;strokeColor=none;fillColor=none;" parent="1" vertex="1">
          <mxGeometry x="1113.6499999999999" y="40" width="120" height="50" as="geometry" />
        </mxCell>
        <mxCell id="v5AVj4iJz0QY_WfGFKWx-11" value="" style="rounded=0;whiteSpace=wrap;html=1;fillColor=none;strokeColor=#F0D5B3;strokeWidth=2;" parent="1" vertex="1">
          <mxGeometry x="200" y="150" width="230" height="580" as="geometry" />
        </mxCell>
        <mxCell id="v5AVj4iJz0QY_WfGFKWx-12" value="&lt;font style=&quot;font-size: 20px;&quot;&gt;Bronze layer&lt;/font&gt;" style="rounded=0;whiteSpace=wrap;html=1;fillColor=light-dark(#F0D5B3,#F0D5B3);strokeColor=#36393d;" parent="1" vertex="1">
          <mxGeometry x="200" y="115" width="190" height="30" as="geometry" />
        </mxCell>
        <mxCell id="v5AVj4iJz0QY_WfGFKWx-18" value="" style="rounded=0;whiteSpace=wrap;html=1;fillColor=none;strokeColor=#C0C0C0;strokeWidth=2;" parent="1" vertex="1">
          <mxGeometry x="460" y="150" width="240" height="580" as="geometry" />
        </mxCell>
        <mxCell id="v5AVj4iJz0QY_WfGFKWx-19" value="&lt;span style=&quot;font-size: 20px;&quot;&gt;Silver layer&lt;/span&gt;" style="rounded=0;whiteSpace=wrap;html=1;fillColor=light-dark(#C0C0C0,#F0D5B3);strokeColor=#36393d;" parent="1" vertex="1">
          <mxGeometry x="470" y="115" width="180" height="30" as="geometry" />
        </mxCell>
        <mxCell id="v5AVj4iJz0QY_WfGFKWx-20" value="" style="rounded=0;whiteSpace=wrap;html=1;fillColor=none;strokeColor=#FFD700;strokeWidth=2;" parent="1" vertex="1">
          <mxGeometry x="760" y="150" width="240" height="580" as="geometry" />
        </mxCell>
        <mxCell id="v5AVj4iJz0QY_WfGFKWx-21" value="&lt;span style=&quot;font-size: 20px;&quot;&gt;Gold layer&lt;/span&gt;" style="rounded=0;whiteSpace=wrap;html=1;fillColor=light-dark(#FFD700,#F0D5B3);strokeColor=#36393d;" parent="1" vertex="1">
          <mxGeometry x="760" y="115" width="190" height="30" as="geometry" />
        </mxCell>
        <mxCell id="v5AVj4iJz0QY_WfGFKWx-22" value="&lt;b&gt;&lt;font style=&quot;font-size: 17px;&quot;&gt;CRM&lt;/font&gt;&lt;/b&gt;" style="image;aspect=fixed;html=1;points=[];align=center;fontSize=12;image=img/lib/azure2/general/Folder_Blank.svg;" parent="1" vertex="1">
          <mxGeometry x="20" y="115" width="69" height="56.00000000000001" as="geometry" />
        </mxCell>
        <mxCell id="v5AVj4iJz0QY_WfGFKWx-23" value="" style="shape=image;html=1;verticalAlign=top;verticalLabelPosition=bottom;labelBackgroundColor=#ffffff;imageAspect=0;aspect=fixed;image=https://cdn0.iconfinder.com/data/icons/phosphor-fill-vol-2/256/file-csv-fill-128.png" parent="1" vertex="1">
          <mxGeometry x="51" y="133" width="38" height="38" as="geometry" />
        </mxCell>
        <mxCell id="v5AVj4iJz0QY_WfGFKWx-24" value="&lt;span style=&quot;font-size: 17px;&quot;&gt;&lt;b&gt;ERP&lt;/b&gt;&lt;/span&gt;" style="image;aspect=fixed;html=1;points=[];align=center;fontSize=12;image=img/lib/azure2/general/Folder_Blank.svg;" parent="1" vertex="1">
          <mxGeometry x="21" y="240" width="69" height="56.00000000000001" as="geometry" />
        </mxCell>
        <mxCell id="v5AVj4iJz0QY_WfGFKWx-25" value="" style="shape=image;html=1;verticalAlign=top;verticalLabelPosition=bottom;labelBackgroundColor=#ffffff;imageAspect=0;aspect=fixed;image=https://cdn0.iconfinder.com/data/icons/phosphor-fill-vol-2/256/file-csv-fill-128.png" parent="1" vertex="1">
          <mxGeometry x="52" y="257" width="38" height="38" as="geometry" />
        </mxCell>
        <mxCell id="v5AVj4iJz0QY_WfGFKWx-41" value="" style="endArrow=none;html=1;rounded=0;fillColor=#eeeeee;strokeColor=#36393d;" parent="1" edge="1">
          <mxGeometry width="50" height="50" relative="1" as="geometry">
            <mxPoint x="20" y="340.68" as="sourcePoint" />
            <mxPoint x="20" y="340.68" as="targetPoint" />
            <Array as="points">
              <mxPoint x="160" y="341" />
            </Array>
          </mxGeometry>
        </mxCell>
        <mxCell id="v5AVj4iJz0QY_WfGFKWx-42" value="&lt;font&gt;&lt;b&gt;Object type&lt;/b&gt;:csv files&amp;nbsp; &amp;nbsp;&lt;/font&gt;&lt;div&gt;&lt;font&gt;&amp;nbsp; &amp;nbsp; &amp;nbsp;&lt;/font&gt;&lt;div&gt;&lt;font&gt;&lt;b&gt;&amp;nbsp; &amp;nbsp;interface&lt;/b&gt;:files in folders&amp;nbsp; &amp;nbsp;&amp;nbsp;&lt;/font&gt;&lt;/div&gt;&lt;/div&gt;" style="text;html=1;align=center;verticalAlign=middle;whiteSpace=wrap;rounded=0;" parent="1" vertex="1">
          <mxGeometry x="-20" y="380" width="210" height="55" as="geometry" />
        </mxCell>
        <mxCell id="v5AVj4iJz0QY_WfGFKWx-49" value="" style="shape=flexArrow;endArrow=classic;html=1;rounded=0;exitX=0.991;exitY=0.421;exitDx=0;exitDy=0;exitPerimeter=0;fillColor=#dae8fc;gradientColor=#7ea6e0;strokeColor=#6c8ebf;" parent="1" edge="1">
          <mxGeometry width="50" height="50" relative="1" as="geometry">
            <mxPoint x="639" y="240" as="sourcePoint" />
            <mxPoint x="760" y="240" as="targetPoint" />
          </mxGeometry>
        </mxCell>
        <mxCell id="v5AVj4iJz0QY_WfGFKWx-51" value="&lt;font style=&quot;font-size: 18px;&quot;&gt;&lt;b style=&quot;&quot;&gt;Raw Data&lt;/b&gt;&lt;/font&gt;" style="text;html=1;align=center;verticalAlign=middle;whiteSpace=wrap;rounded=0;" parent="1" vertex="1">
          <mxGeometry x="239.29" y="288.68" width="100.71" height="30" as="geometry" />
        </mxCell>
        <mxCell id="v5AVj4iJz0QY_WfGFKWx-52" value="&lt;font style=&quot;font-size: 18px;&quot;&gt;&lt;b&gt;cleaned,standarized data&lt;/b&gt;&lt;/font&gt;" style="text;html=1;align=center;verticalAlign=middle;whiteSpace=wrap;rounded=0;" parent="1" vertex="1">
          <mxGeometry x="470" y="266.68" width="180" height="74" as="geometry" />
        </mxCell>
        <mxCell id="v5AVj4iJz0QY_WfGFKWx-54" value="&lt;font style=&quot;font-size: 18px;&quot;&gt;&lt;b&gt;Business-Ready&lt;/b&gt;&lt;/font&gt;&lt;div&gt;&lt;font style=&quot;font-size: 18px;&quot;&gt;&lt;b&gt;data&lt;/b&gt;&lt;/font&gt;&lt;/div&gt;" style="text;html=1;align=center;verticalAlign=middle;whiteSpace=wrap;rounded=0;" parent="1" vertex="1">
          <mxGeometry x="760" y="266.68" width="180" height="74" as="geometry" />
        </mxCell>
        <mxCell id="v5AVj4iJz0QY_WfGFKWx-55" value="&lt;font&gt;&lt;b style=&quot;&quot;&gt;&lt;font style=&quot;font-size: 19px;&quot;&gt;&amp;nbsp;Object type&lt;/font&gt;: &lt;/b&gt;Tables&amp;nbsp; &amp;nbsp; &amp;nbsp; &amp;nbsp; &amp;nbsp; &amp;nbsp; &amp;nbsp; &amp;nbsp; &amp;nbsp; &amp;nbsp; &amp;nbsp; &amp;nbsp; &amp;nbsp; &amp;nbsp; &amp;nbsp; &amp;nbsp; &amp;nbsp; &amp;nbsp; &amp;nbsp; &amp;nbsp; &amp;nbsp; &amp;nbsp; &amp;nbsp; &amp;nbsp; &amp;nbsp; &amp;nbsp; &amp;nbsp; &amp;nbsp;&lt;/font&gt;&lt;font style=&quot;background-color: transparent; color: light-dark(rgb(0, 0, 0), rgb(255, 255, 255));&quot;&gt;&amp;nbsp;&lt;/font&gt;&lt;b style=&quot;background-color: transparent; color: light-dark(rgb(0, 0, 0), rgb(255, 255, 255));&quot;&gt;&lt;font style=&quot;font-size: 19px;&quot;&gt;Load&lt;/font&gt;:&amp;nbsp; &amp;nbsp; &amp;nbsp; &amp;nbsp; &amp;nbsp; &amp;nbsp; &amp;nbsp; &amp;nbsp; &amp;nbsp; &amp;nbsp; &amp;nbsp; &amp;nbsp; &amp;nbsp; &amp;nbsp;&lt;/b&gt;&lt;b style=&quot;background-color: transparent; color: light-dark(rgb(0, 0, 0), rgb(255, 255, 255));&quot;&gt;&amp;nbsp; &amp;nbsp; &amp;nbsp; &amp;nbsp; &amp;nbsp; &amp;nbsp; &amp;nbsp; &amp;nbsp; &amp;nbsp; &amp;nbsp; &amp;nbsp; &amp;nbsp; &amp;nbsp; &amp;nbsp;&lt;/b&gt;&lt;div&gt;&lt;div&gt;&lt;font style=&quot;&quot;&gt;&lt;b&gt;&amp;nbsp; &amp;nbsp; &amp;nbsp;â€¢&lt;/b&gt;Batch Processing&amp;nbsp;&amp;nbsp;&lt;/font&gt;&lt;/div&gt;&lt;div&gt;&lt;span style=&quot;background-color: transparent; color: light-dark(rgb(0, 0, 0), rgb(255, 255, 255));&quot;&gt;&amp;nbsp;&lt;span style=&quot;background-color: transparent; color: light-dark(rgb(0, 0, 0), rgb(255, 255, 255));&quot;&gt;â€¢full load&amp;nbsp; &amp;nbsp; &amp;nbsp; &amp;nbsp; &amp;nbsp; &amp;nbsp; &amp;nbsp;&amp;nbsp;&lt;/span&gt;&lt;/span&gt;&lt;/div&gt;&lt;div&gt;&lt;font style=&quot;&quot;&gt;&amp;nbsp;â€¢truncate &amp;amp; insert&lt;/font&gt;&lt;/div&gt;&lt;div&gt;&lt;span style=&quot;font-size: 19px; background-color: transparent; color: light-dark(rgb(0, 0, 0), rgb(255, 255, 255));&quot;&gt;&lt;br&gt;&lt;/span&gt;&lt;/div&gt;&lt;div&gt;&lt;span style=&quot;font-size: 19px; background-color: transparent; color: light-dark(rgb(0, 0, 0), rgb(255, 255, 255));&quot;&gt;NO &lt;/span&gt;&lt;b style=&quot;font-size: 19px; background-color: transparent; color: light-dark(rgb(0, 0, 0), rgb(255, 255, 255));&quot;&gt;Transformations&amp;nbsp; &amp;nbsp;&amp;nbsp;&lt;/b&gt;&lt;/div&gt;&lt;div&gt;&lt;font style=&quot;font-size: 19px;&quot;&gt;&lt;b style=&quot;&quot;&gt;&amp;nbsp;&lt;/b&gt;&lt;/font&gt;&lt;/div&gt;&lt;div&gt;&lt;font style=&quot;&quot;&gt;&lt;b style=&quot;font-size: 19px;&quot;&gt;&amp;nbsp;Data model: &lt;/b&gt;&lt;span style=&quot;font-size: 19px;&quot;&gt;None&lt;/span&gt;&lt;font&gt;&amp;nbsp;(as-is)&lt;/font&gt;&lt;/font&gt;&lt;/div&gt;&lt;div&gt;&lt;font style=&quot;font-size: 19px;&quot;&gt;&lt;b style=&quot;&quot;&gt;&amp;nbsp;&amp;nbsp; &amp;nbsp; &amp;nbsp; &amp;nbsp; &amp;nbsp; &amp;nbsp; &amp;nbsp; &amp;nbsp; &amp;nbsp; &amp;nbsp; &amp;nbsp;&lt;/b&gt;&lt;/font&gt;&lt;/div&gt;&lt;div&gt;&lt;b style=&quot;&quot;&gt;&lt;font&gt;&amp;nbsp;&lt;br&gt;&lt;br&gt;&lt;/font&gt;&lt;/b&gt;&lt;/div&gt;&lt;/div&gt;" style="text;html=1;align=center;verticalAlign=middle;whiteSpace=wrap;rounded=0;" parent="1" vertex="1">
          <mxGeometry x="200" y="362.68" width="230" height="320" as="geometry" />
        </mxCell>
        <mxCell id="v5AVj4iJz0QY_WfGFKWx-57" value="" style="endArrow=none;html=1;rounded=0;fillColor=#fff2cc;strokeColor=#d6b656;" parent="1" edge="1">
          <mxGeometry width="50" height="50" relative="1" as="geometry">
            <mxPoint x="217.5" y="340.7699999999999" as="sourcePoint" />
            <mxPoint x="217.5" y="340.7699999999999" as="targetPoint" />
            <Array as="points">
              <mxPoint x="372.5" y="340.67999999999995" />
            </Array>
          </mxGeometry>
        </mxCell>
        <mxCell id="Kr05i6FKvgyYD7e76daW-1" value="&lt;font&gt;&lt;b style=&quot;&quot;&gt;&lt;font style=&quot;font-size: 19px;&quot;&gt;Object type&lt;/font&gt;: &lt;/b&gt;Tables&amp;nbsp; &amp;nbsp; &amp;nbsp; &amp;nbsp; &amp;nbsp; &amp;nbsp; &amp;nbsp;&amp;nbsp;&lt;/font&gt;&lt;div&gt;&lt;font&gt;&lt;br&gt;&lt;/font&gt;&lt;/div&gt;&lt;div&gt;&lt;font&gt;&amp;nbsp;&amp;nbsp; &amp;nbsp;&lt;/font&gt;&lt;b style=&quot;background-color: transparent; color: light-dark(rgb(0, 0, 0), rgb(255, 255, 255));&quot;&gt;&lt;font style=&quot;font-size: 19px;&quot;&gt;Load&lt;/font&gt;:&amp;nbsp; &amp;nbsp; &amp;nbsp; &amp;nbsp; &amp;nbsp; &amp;nbsp; &amp;nbsp; &amp;nbsp; &amp;nbsp; &amp;nbsp; &amp;nbsp; &amp;nbsp; &amp;nbsp; &amp;nbsp;&lt;/b&gt;&lt;b style=&quot;background-color: transparent; color: light-dark(rgb(0, 0, 0), rgb(255, 255, 255));&quot;&gt;&amp;nbsp; &amp;nbsp; &amp;nbsp; &amp;nbsp; &amp;nbsp; &amp;nbsp; &amp;nbsp; &amp;nbsp; &amp;nbsp; &amp;nbsp; &amp;nbsp; &lt;/b&gt;&lt;b style=&quot;background-color: transparent; color: light-dark(rgb(0, 0, 0), rgb(255, 255, 255));&quot;&gt;â€¢&lt;/b&gt;&lt;span style=&quot;background-color: transparent; color: light-dark(rgb(0, 0, 0), rgb(255, 255, 255));&quot;&gt;Batch Processing&amp;nbsp; &amp;nbsp; &amp;nbsp; &amp;nbsp; &amp;nbsp; &amp;nbsp;&lt;/span&gt;&lt;span style=&quot;background-color: transparent; color: light-dark(rgb(0, 0, 0), rgb(255, 255, 255));&quot;&gt;â€¢full load&amp;nbsp; &amp;nbsp; &amp;nbsp; &amp;nbsp; &amp;nbsp; &amp;nbsp; &amp;nbsp;&amp;nbsp;&lt;/span&gt;&lt;div&gt;&lt;div&gt;&lt;font style=&quot;&quot;&gt;&amp;nbsp;â€¢truncate &amp;amp; insert&lt;/font&gt;&lt;/div&gt;&lt;div&gt;&lt;font style=&quot;&quot;&gt;&lt;br&gt;&lt;/font&gt;&lt;/div&gt;&lt;div&gt;&lt;b style=&quot;background-color: transparent; color: light-dark(rgb(0, 0, 0), rgb(255, 255, 255)); font-size: 19px;&quot;&gt;&amp;nbsp; Transformations:&amp;nbsp; &amp;nbsp; &amp;nbsp; &amp;nbsp; &amp;nbsp; &amp;nbsp; &amp;nbsp; &amp;nbsp; &amp;nbsp;&amp;nbsp;&lt;/b&gt;&lt;b style=&quot;background-color: transparent; color: light-dark(rgb(0, 0, 0), rgb(255, 255, 255)); font-size: 19px;&quot;&gt;&amp;nbsp; &amp;nbsp; &amp;nbsp; &amp;nbsp; &amp;nbsp; &amp;nbsp;&amp;nbsp;&lt;/b&gt;&lt;/div&gt;&lt;div&gt;&lt;b style=&quot;font-size: 19px; background-color: transparent; color: light-dark(rgb(0, 0, 0), rgb(255, 255, 255));&quot;&gt;&amp;nbsp; &amp;nbsp; &amp;nbsp; &amp;nbsp; &amp;nbsp; &amp;nbsp;â€¢&lt;/b&gt;&lt;span style=&quot;font-size: 19px; background-color: transparent; color: light-dark(rgb(0, 0, 0), rgb(255, 255, 255));&quot;&gt;Data cleansing&amp;nbsp; &amp;nbsp; &amp;nbsp; &amp;nbsp;&amp;nbsp;&lt;/span&gt;&lt;/div&gt;&lt;div&gt;&lt;b style=&quot;font-size: 19px; background-color: transparent; color: light-dark(rgb(0, 0, 0), rgb(255, 255, 255));&quot;&gt;&amp;nbsp; &amp;nbsp; &amp;nbsp; &amp;nbsp; &amp;nbsp; &amp;nbsp; â€¢&lt;/b&gt;&lt;span style=&quot;font-size: 19px; background-color: transparent; color: light-dark(rgb(0, 0, 0), rgb(255, 255, 255));&quot;&gt;Data Standarization&lt;/span&gt;&lt;/div&gt;&lt;div&gt;&lt;b style=&quot;font-size: 19px; background-color: transparent; color: light-dark(rgb(0, 0, 0), rgb(255, 255, 255));&quot;&gt;&amp;nbsp; &amp;nbsp; &amp;nbsp; &amp;nbsp; &amp;nbsp; â€¢&lt;/b&gt;&lt;span style=&quot;font-size: 19px; background-color: transparent; color: light-dark(rgb(0, 0, 0), rgb(255, 255, 255));&quot;&gt;Data normalization&lt;/span&gt;&lt;/div&gt;&lt;div&gt;&lt;b style=&quot;font-size: 19px; background-color: transparent; color: light-dark(rgb(0, 0, 0), rgb(255, 255, 255));&quot;&gt;&amp;nbsp; &amp;nbsp; &amp;nbsp; &amp;nbsp; &amp;nbsp; &amp;nbsp;â€¢&lt;/b&gt;&lt;span style=&quot;font-size: 19px; background-color: transparent; color: light-dark(rgb(0, 0, 0), rgb(255, 255, 255));&quot;&gt;Derived columns&amp;nbsp; &amp;nbsp;&lt;/span&gt;&lt;/div&gt;&lt;div&gt;&lt;span style=&quot;background-color: transparent; color: light-dark(rgb(0, 0, 0), rgb(255, 255, 255));&quot;&gt;&lt;span style=&quot;font-size: 19px; background-color: transparent; color: light-dark(rgb(0, 0, 0), rgb(255, 255, 255));&quot;&gt;&lt;b&gt;&amp;nbsp; &amp;nbsp; &amp;nbsp; &amp;nbsp; &amp;nbsp; &amp;nbsp; â€¢&lt;/b&gt;Data enrichment&lt;b&gt;&amp;nbsp; &amp;nbsp;&amp;nbsp;&lt;/b&gt;&lt;/span&gt;&lt;/span&gt;&lt;/div&gt;&lt;div&gt;&lt;font style=&quot;font-size: 19px;&quot;&gt;&lt;b style=&quot;&quot;&gt;&amp;nbsp;&lt;/b&gt;&lt;/font&gt;&lt;/div&gt;&lt;div&gt;&lt;font style=&quot;&quot;&gt;&lt;b style=&quot;font-size: 19px;&quot;&gt;Data model:&lt;/b&gt;&lt;font&gt;none (as-is)&lt;/font&gt;&lt;/font&gt;&lt;/div&gt;&lt;div&gt;&lt;font style=&quot;font-size: 19px;&quot;&gt;&lt;b style=&quot;&quot;&gt;&amp;nbsp;&amp;nbsp; &amp;nbsp; &amp;nbsp; &amp;nbsp; &amp;nbsp; &amp;nbsp; &amp;nbsp; &amp;nbsp; &amp;nbsp; &amp;nbsp; &amp;nbsp;&lt;/b&gt;&lt;/font&gt;&lt;/div&gt;&lt;div&gt;&lt;b style=&quot;&quot;&gt;&lt;font&gt;&amp;nbsp;&lt;br&gt;&lt;br&gt;&lt;/font&gt;&lt;/b&gt;&lt;/div&gt;&lt;/div&gt;&lt;/div&gt;" style="text;html=1;align=center;verticalAlign=middle;whiteSpace=wrap;rounded=0;" parent="1" vertex="1">
          <mxGeometry x="460" y="400" width="240" height="350" as="geometry" />
        </mxCell>
        <mxCell id="Kr05i6FKvgyYD7e76daW-2" value="" style="endArrow=none;html=1;rounded=0;fillColor=#f5f5f5;strokeColor=#666666;" parent="1" edge="1">
          <mxGeometry width="50" height="50" relative="1" as="geometry">
            <mxPoint x="482.5" y="340.77" as="sourcePoint" />
            <mxPoint x="482.5" y="340.77" as="targetPoint" />
            <Array as="points">
              <mxPoint x="637.5" y="340.68" />
            </Array>
          </mxGeometry>
        </mxCell>
        <mxCell id="Kr05i6FKvgyYD7e76daW-9" value="" style="shape=flexArrow;endArrow=classic;html=1;rounded=0;exitX=0.991;exitY=0.421;exitDx=0;exitDy=0;exitPerimeter=0;fillColor=#dae8fc;gradientColor=#7ea6e0;strokeColor=#6c8ebf;" parent="1" edge="1">
          <mxGeometry width="50" height="50" relative="1" as="geometry">
            <mxPoint x="349" y="240" as="sourcePoint" />
            <mxPoint x="470" y="240" as="targetPoint" />
          </mxGeometry>
        </mxCell>
        <mxCell id="Kr05i6FKvgyYD7e76daW-10" value="" style="shape=flexArrow;endArrow=classic;html=1;rounded=0;exitX=0.991;exitY=0.421;exitDx=0;exitDy=0;exitPerimeter=0;fillColor=#dae8fc;gradientColor=#7ea6e0;strokeColor=#6c8ebf;" parent="1" edge="1">
          <mxGeometry width="50" height="50" relative="1" as="geometry">
            <mxPoint x="900" y="240" as="sourcePoint" />
            <mxPoint x="1021" y="240" as="targetPoint" />
          </mxGeometry>
        </mxCell>
        <mxCell id="Kr05i6FKvgyYD7e76daW-13" value="" style="shape=flexArrow;endArrow=classic;html=1;rounded=0;exitX=0.991;exitY=0.421;exitDx=0;exitDy=0;exitPerimeter=0;fillColor=#dae8fc;gradientColor=#7ea6e0;strokeColor=#6c8ebf;" parent="1" edge="1">
          <mxGeometry width="50" height="50" relative="1" as="geometry">
            <mxPoint x="110" y="240" as="sourcePoint" />
            <mxPoint x="231" y="240" as="targetPoint" />
          </mxGeometry>
        </mxCell>
        <mxCell id="Kr05i6FKvgyYD7e76daW-14" value="" style="endArrow=none;html=1;rounded=0;fillColor=#f5f5f5;strokeColor=#666666;" parent="1" edge="1">
          <mxGeometry width="50" height="50" relative="1" as="geometry">
            <mxPoint x="785" y="340.77" as="sourcePoint" />
            <mxPoint x="785" y="340.77" as="targetPoint" />
            <Array as="points">
              <mxPoint x="940" y="340.68" />
            </Array>
          </mxGeometry>
        </mxCell>
        <mxCell id="Kr05i6FKvgyYD7e76daW-15" value="&lt;font&gt;&lt;b style=&quot;&quot;&gt;&lt;font style=&quot;font-size: 19px;&quot;&gt;Object type&lt;/font&gt;: &lt;/b&gt;views&amp;nbsp; &amp;nbsp; &amp;nbsp; &amp;nbsp; &amp;nbsp; &amp;nbsp; &amp;nbsp;&amp;nbsp;&lt;/font&gt;&lt;div&gt;&lt;br&gt;&lt;div&gt;&lt;font&gt;&amp;nbsp; &amp;nbsp; No&amp;nbsp;&lt;/font&gt;&lt;b style=&quot;background-color: transparent; color: light-dark(rgb(0, 0, 0), rgb(255, 255, 255));&quot;&gt;&lt;font style=&quot;font-size: 19px;&quot;&gt;Load&lt;/font&gt;&amp;nbsp; &amp;nbsp; &amp;nbsp; &amp;nbsp; &amp;nbsp; &amp;nbsp; &amp;nbsp; &amp;nbsp; &amp;nbsp; &amp;nbsp; &amp;nbsp;&amp;nbsp;&lt;/b&gt;&lt;b style=&quot;background-color: transparent; color: light-dark(rgb(0, 0, 0), rgb(255, 255, 255));&quot;&gt;&amp;nbsp; &amp;nbsp; &amp;nbsp; &amp;nbsp; &amp;nbsp; &amp;nbsp; &amp;nbsp; &amp;nbsp; &amp;nbsp; &amp;nbsp; &amp;nbsp;&amp;nbsp;&lt;/b&gt;&lt;div&gt;&lt;div&gt;&lt;b style=&quot;background-color: transparent; color: light-dark(rgb(0, 0, 0), rgb(255, 255, 255)); font-size: 19px;&quot;&gt;&amp;nbsp; Transformations:&amp;nbsp; &amp;nbsp; &amp;nbsp; &amp;nbsp; &amp;nbsp; &amp;nbsp; &amp;nbsp; &amp;nbsp; &amp;nbsp;&amp;nbsp;&lt;/b&gt;&lt;b style=&quot;background-color: transparent; color: light-dark(rgb(0, 0, 0), rgb(255, 255, 255)); font-size: 19px;&quot;&gt;&amp;nbsp; &amp;nbsp; &amp;nbsp; &amp;nbsp; &amp;nbsp; &amp;nbsp;&amp;nbsp;&lt;/b&gt;&lt;/div&gt;&lt;div&gt;&lt;b style=&quot;font-size: 19px; background-color: transparent; color: light-dark(rgb(0, 0, 0), rgb(255, 255, 255));&quot;&gt;&amp;nbsp; &amp;nbsp; &amp;nbsp; &amp;nbsp; &amp;nbsp; &amp;nbsp;â€¢&lt;/b&gt;&lt;span style=&quot;font-size: 19px; background-color: transparent; color: light-dark(rgb(0, 0, 0), rgb(255, 255, 255));&quot;&gt;Data integration&amp;nbsp; &amp;nbsp; &amp;nbsp; &amp;nbsp;&lt;/span&gt;&lt;b style=&quot;background-color: transparent; color: light-dark(rgb(0, 0, 0), rgb(255, 255, 255)); font-size: 19px;&quot;&gt;â€¢&lt;/b&gt;&lt;span style=&quot;background-color: transparent; color: light-dark(rgb(0, 0, 0), rgb(255, 255, 255)); font-size: 19px;&quot;&gt;Aggregations&lt;/span&gt;&lt;/div&gt;&lt;div&gt;&lt;b style=&quot;font-size: 19px; background-color: transparent; color: light-dark(rgb(0, 0, 0), rgb(255, 255, 255));&quot;&gt;&amp;nbsp; &amp;nbsp; â€¢&lt;/b&gt;&lt;span style=&quot;font-size: 19px; background-color: transparent; color: light-dark(rgb(0, 0, 0), rgb(255, 255, 255));&quot;&gt;Business logic&lt;/span&gt;&lt;/div&gt;&lt;div&gt;&lt;b style=&quot;font-size: 19px; background-color: transparent; color: light-dark(rgb(0, 0, 0), rgb(255, 255, 255));&quot;&gt;&amp;nbsp; &amp;nbsp; &amp;nbsp;&amp;nbsp;&lt;/b&gt;&lt;/div&gt;&lt;div&gt;&lt;b style=&quot;background-color: transparent; color: light-dark(rgb(0, 0, 0), rgb(255, 255, 255)); font-size: 19px;&quot;&gt;Data model:&amp;nbsp; &amp;nbsp; &amp;nbsp; &amp;nbsp; &amp;nbsp; &amp;nbsp; &amp;nbsp; &amp;nbsp; &amp;nbsp; &amp;nbsp;&lt;/b&gt;&lt;/div&gt;&lt;div&gt;&lt;b style=&quot;background-color: transparent; color: light-dark(rgb(0, 0, 0), rgb(255, 255, 255)); font-size: 19px;&quot;&gt;&amp;nbsp; &amp;nbsp; &amp;nbsp; &amp;nbsp; &amp;nbsp; &amp;nbsp; &amp;nbsp; &amp;nbsp;&amp;nbsp;&lt;/b&gt;&lt;/div&gt;&lt;div&gt;&lt;b style=&quot;background-color: transparent; color: light-dark(rgb(0, 0, 0), rgb(255, 255, 255)); font-size: 19px;&quot;&gt;â€¢&lt;/b&gt;&lt;span style=&quot;background-color: transparent; color: light-dark(rgb(0, 0, 0), rgb(255, 255, 255)); font-size: 19px;&quot;&gt;Star schema&lt;/span&gt;&lt;/div&gt;&lt;div&gt;&lt;span style=&quot;background-color: transparent; color: light-dark(rgb(0, 0, 0), rgb(255, 255, 255)); font-size: 19px;&quot;&gt;â€¢Flat table&amp;nbsp; &amp;nbsp; &amp;nbsp;&lt;/span&gt;&lt;/div&gt;&lt;div&gt;&lt;span style=&quot;background-color: transparent; color: light-dark(rgb(0, 0, 0), rgb(255, 255, 255)); font-size: 19px;&quot;&gt;&amp;nbsp; &amp;nbsp; &amp;nbsp; &amp;nbsp; â€¢Aggregated table&lt;/span&gt;&lt;/div&gt;&lt;div&gt;&lt;font style=&quot;font-size: 19px;&quot;&gt;&lt;b style=&quot;&quot;&gt;&amp;nbsp;&amp;nbsp; &amp;nbsp; &amp;nbsp; &amp;nbsp; &amp;nbsp; &amp;nbsp; &amp;nbsp; &amp;nbsp; &amp;nbsp; &amp;nbsp; &amp;nbsp;&lt;/b&gt;&lt;/font&gt;&lt;/div&gt;&lt;div&gt;&lt;b style=&quot;&quot;&gt;&lt;font&gt;&amp;nbsp;&lt;br&gt;&lt;br&gt;&lt;/font&gt;&lt;/b&gt;&lt;/div&gt;&lt;/div&gt;&lt;/div&gt;&lt;/div&gt;" style="text;html=1;align=center;verticalAlign=middle;whiteSpace=wrap;rounded=0;" parent="1" vertex="1">
          <mxGeometry x="760" y="390" width="240" height="350" as="geometry" />
        </mxCell>
        <mxCell id="Kr05i6FKvgyYD7e76daW-16" value="" style="image;aspect=fixed;html=1;points=[];align=center;fontSize=12;image=img/lib/azure2/power_platform/PowerBI.svg;" parent="1" vertex="1">
          <mxGeometry x="1085.55" y="136.16" width="62.76" height="83.68" as="geometry" />
        </mxCell>
        <mxCell id="Kr05i6FKvgyYD7e76daW-18" value="" style="shape=image;html=1;verticalAlign=top;verticalLabelPosition=bottom;labelBackgroundColor=#ffffff;imageAspect=0;aspect=fixed;image=https://cdn1.iconfinder.com/data/icons/ionicons-fill-vol-2/512/logo-tableau-128.png;imageBackground=none;" parent="1" vertex="1">
          <mxGeometry x="1174.55" y="136.16" width="80" height="80" as="geometry" />
        </mxCell>
        <mxCell id="Kr05i6FKvgyYD7e76daW-20" value="" style="shape=image;verticalLabelPosition=bottom;labelBackgroundColor=default;verticalAlign=top;aspect=fixed;imageAspect=0;image=data:image/png,iVBORw0KGgoAAAANSUhEUgAAAIAAAACACAYAAADDPmHLAAAACXBIWXMAAAOwAAADsAEnxA+tAAAAGXRFWHRTb2Z0d2FyZQB3d3cuaW5rc2NhcGUub3Jnm+48GgAAHohJREFUeJztfXuYU9W59+/dSWYm2QPDRdAKCrbUowJqi1BR0ElmpPXRtgqFT0gyFi/l6OfxUVurrY+V9pwqrQoH2u8orZYySdAzaovVlhaZZOQiXtBqK+BRVJCLF+QyM9k7M5lkvd8fSYa9d+4z2ZnhkN/zzPOwV9Za+w3rzVrrfd/fehdQQQUVVFBBBRVUUEEFFZxYoIEWYDDh8hVc3TUycgVYzCPQuQCNBVgCaB8g3mCW1p5UbV/71DyKDrSspUJFAZJw+pRvEWEZgC/mrMh4H0R3Bj2OP5ZHMnNRUQBmcgYiSwj8w2KaEejBmbvsdy9eTMIs0coB60ALMNBwBSL3o8jBBwAG3/nihAgDuMsEscqGE34GcPnVDoCHpJ6JgDPqCKcOlTC0CiAQOroZ+zsFdrczBOvbE+PqVq+8ttxylwrSQAsw0CDw9tS/a6zAJadbMGm0BSNqCFaJYJGA4XbCpNEWzDzdghrDnMmEB+e2cFW55S4VTngFmHSK5Sfjhkk8vk7CJadbUVedfVKsqyZ8bYwFkr7KhEM9kW+bLadZOOH3AGcMla7EUC54KayrJowbRvjwyLG1gAW+DeApM+QzGyesAjh9yhVEWPm3D2Kjv3KyhNFy4duhMUMkfHgk3vtMhAvMkLEcOGGXACI8CmBMd4xtb34az1tfi6HpK/6pJRKr7DhhFQDAsNQ/umJA7Li25vuOE1kBPtE+hKOcrV4aOoyOYBIfl0KggcAJrAD0qvZpX0fhU8D+TkNdll4piUgDgBNWAQj4k/Z5dzujvTv/LNDezdh91OgNwnMlFa6MOGEV4Khi/wOAD1LPgoFX9sdzKkF7N+OV/XGwvsoucar9uA0MndCuYKdPnUPET2vLiIDxwwhjhkgYWpX47+mMMvZ1Cuw+ysbBZ2LMPp5dwWVTgPrmzkmShW4AUyOA8cni3SDeIOL8WFvTkLfLJYsWDf7wcgbd2pe2xPhNq1deVGqZygnTFWBuC1cdjqrLGPhXZF9y4iA8MtLm+H65yRYNfmUtA3105dI7smKf8twiUksrVflg6h5gbgtXHeqJrGPg5jzvsoBxy6Fo5C/lDKy4fMoNfR98AOCzFFn9z9JJVH6YqgCHo+oyMLsKb8ENh6LqQ+ZJdAyuJ7u+hAQDKA+oE8AOgNYANJuA3xkq3NjgV79jhozlgGlLQH1z5yRJkt4EYEmVjbAT3BNtmDQ68dodBxktO2P4OKyzq+MsifNCC4Zsh0moD7FV2q9uBDBdUxwGIwLCqFQBga5p9Tj+W9t2VjPLMSmyDeCzNMVHJCGdv6HJ/pFZMpsF02YAyUI3wDD4P6+vwtRTJditBLuVMOULEn4y04YRdp0eWihO15slFwDQPvVH0A8+CLwYhBGaIraIeMjYdn0TKYLEfDC6NcXDhRT3z21hi7H+YId5SwDTZdpH90QbZFv6hCPbCAsm2vSFpG9bSjT4lalEuFf3OuBZQbQLGoUF8Pb6piGfZeqjzV37Joju1pfSzMNR9Z5Sy2s2TNwD0Gnap9S0nwmT0z6jcWZINKuZZSb2A9Bq3KfRKnGjZNyrEAdz9RV025cDWKctY+Bep1+9uFTylgMmKgD3g2vAtU5/eMHl/kNDSycPEJPUh8B0pvZFzLh+07whBxmkUwAWlFMBQMRWIb4LfVDJSuBA/aojw7K0GnQwcwbYo33acTC7i/Xtz9I+IwIFurnmswa/8rzTr1zXsLpjZH+kcfqUKwAYnTYrQ175zw1rwicDmKgpj1uqu1/M1+f6piGfMfF3AWi/wDjJZlvZH1nLCdMUgKCfQlt2xqD0pCuB0sNo2dmTrZNqBq4g4HG2WD5x+pUXXAHlpvpV4VOKkWVmS+coIjwOrdVD/K5VOH4AAGDJCb1F9PqGeSPaC+k75K79G0BLDYLPc/qV64qRcaBg3gwg8UoAvfbdx2GBe9qiePWAQCTGiMQYrx0QWLwxik+VgmLxVgIawfgvyUb7nT5lk8uv3uYKRPLuF6qi0m8BnKwpihGTZ30TKQDAab6KPNO/ASOr7D8G8IauB2CF09fxL8X0MxAw1RXs8oeXAXRbca1oDYCPADEHoC8X0ICJ8DozP2Mh6zMvuGve037YEFCuZ8ZjujcA97V65J/1yulTdoHwpdSzRHzZBnfthmKkbljddSZb4m8AkDXFb4ysckwfzGcJTVWAuS1sORRVnwNweeGtaHbq3F2jPzxZMM0BYTaAyQV28E8QnpGY/yCsVhWx+JsAajWfbxVjHJe0OSkGAK5AZBxY7O79lNEdqXYM3zqPIoXLnIDTr1xHwOOG7/Nw0JNcagYhTA8G1a/iGsmqLgVhEQpbcj7pqRLnbpo35KC28LJA15fjHJtDRHOYMQWFyR4BYNc8hwVbvtLmrdmVKnD5wgtB1OveZVBbyONwFtB3Rrj84f8GaJ6miJn48sReYfDBdEJI20LqCnrlmxls5M13AdjBjMcBaHeBpyTXbB1ecNe8F/TULml1y1NB0hkA3c6MzdDsMzLAbnj+J5E4efFiPva9SdKv/5zb/s8H0dOzCIDWAiJiWj2ruXN0f/o1C2XjA7j86jsAH9sUkXRp0G3fCABOn3IvEX6mrU+EG1rdsmE6TUf9qvApUhVdzYzZBNSjgLMOBHzMjLVM/AyBmqGhdTNoRsjj2FL4N0uH069eTOA2gyzrgm7HFSAqnH1aBpRFAepXHRkm2aoOa94XtwpHXWoXnjU4Y7WcH7ym5v1C39OwumMkS9b5IF6Bvn23cLviGPH6IspilxaOBr/yEwZ+qi+l24Mex6AKH5eFE2ix2qZCOyCM7anBB4A2J8VgtXgBhDXNahGL++pDhXsUW68degjEE6EffAZQGGGDYauTI793BtTZ31zJjkLfmwkjqhw/B3iTvn9eUh8In9+ffkuNsigAE00zvPVVY53gNTXvg3G7oXh6MnJXEDJ6+xiPyopjFDN9J2lidmTtgFAN8AJifkaR1QOugDq30Hcb8dQ8ikvC4gFwRNu/xNITs5pZzt6yvCgXK1ivAJyuAAAQ9MqPEfCstowI9zb4lan5XpDR2wf6H1l1/OC5RaSGvI5ngh6Hu/qwYzQzrmRgdZ4u64h5ubZgVjPL01vYuLHMig1N9o8I9D19KZ8VswweFtGAKAAzZ1QAAIhWiRsBfKopsjGxP9+vJoO3r4fAXiNfb92t1B3yyn8mxop8QjMfWzpcvvDCGKmH7FG1oxiXdKvH8TQAvVXDuGGwsIhMPx3c2Bw5XUBo/6MUHitnZftsmjfkoNOnXE+JwxaJXzPTmTFJfQjATZnaZOL2MePfg175tayCSeyC9lQ4Ya1E0sNCxOcA9HUAApJ087HPaQmA6kRVNILRKNno106f8hIRPQOiPwbd9j3IAFlx3KbIkZlaFhGDf+MKKJeC4cQAsqRNtwIa/Op39D4A3hj01F6ar53LrzyCBJO4tyEzvhnyyn/W1Xuy60v5vH1Z+v8LNB5KAm5p9cj/L3v98Lt5XNM5XdL1gfD5kqCXE/uMvCgbS9r0JYAZX9MXSFmnfy2swvEDEL+rKSIiPD6zpbOXs1cfYiticR/0gx+G1eLNNfhTVrINwExtGQmR0wFEIDcMAR9jFWZcANADcY6/6/Ir/3D5lMWN/vBkIMEiItCPc71Dg7KxpM3fA5DIawFkwvomUojJA0A7kCdrvYSZuH1g3J7PdzBUjkyDXmkObGgasjNXm1aP/FrQI0+xkOVMgH9EhG3Q8wCMmAzCfQL0D5c//K7Lrz7AJIpMJGE+S7ocwaB2aCNkJI3PtlZmQkaHCuNGIrzFwBZo6F0EPNvqka/K12e655H8QY/DW6hMKSQCSXw1M88hwkUo8gc1GFjS5p4LiCkToQ+PflrM4ANAfIzjfgBbdYWEZcx4Ahm4fYX0SeAGXQHnnv6zIei27wl6HP8Z8sozRQ+PAeFmBjZAP2tlxGBhSZuqABynguz/XGhzUkywpQlGL6Emfg8Nty9ffwkPH12oK5Qs/QoAAUDbwtpPgm75kZBHvozi8VMYuJ6APxvo470YLCxpc/cAhD6t/0a0eWt2ZfASarHSaB1kg+pQLtbtxBnvFzsr5UPrtUMPhTzy71o98pXV1DWawW4Y9guDgSUNmL8JNMwA2R1A+RD0yo/BkNQBgJ7bVwDYGP4l9PvXnwvrPCM7Qp7aNSg0HpER/WFY54ZpHc9qZjkGVcu05SjFsjtmygY9/4+oOP5fsZjbwlWfdyvXwLDh3nGQMeULmWeBDCzpD82RzsQZIGbpmgKdgtG7m93DjmRtkAcun3IDgG+lfXDMS5gXjS2H6wBM0bYGibTjX6XAjMDR4a5A+K5DUfVDIloNQBddLIYlzcR/NUNGwNQlID7NUNDn6b/e1zUhz0neRclIYG6JuqsvheH4V+uC2k+z1e8LGgNdX2zwh5dXse0jMC1BlhyCRbCk47a45dellFEL82IB3H8LAEh4+yz7VR8bvX2MTzWWQMpLODmXJUBp/v/+0b90cvrVCyXwHYLjswEq6JDo4Qjj19tye3qZePn6JvvxtwTAuAHsowVg2a/+mAG92ca4nQjzoecSnpyJS6hvV+TxrzxYvJglZ0Cd7fIrmyXwVgBzoZ9hUggTeIUkxDkEFEMOXXeSTS76LoNiYIonsGFN+GQWdOzMHKO7+oijbt2tlNEmzgZXQJ0G5i3QzFRab18mLiEYNyYthkwyfQwNLU2q6h5Z6AkgLWY1sxyX1O8ycBuACTmqHgD4V1GKrUztf+pXcY1UpSwB0y3IrCwAECfgl0cVx32loKflgilLAMMw/RPeKnbwE1aE4gNIK6PO28djHQ/QfvVyaOMBhGWuJ7tCafEAlpzQzf+FH/9KoX5V+BSqon+LsboIQK6zim8x89KTquUnjdG8toXUBeA255rO31KcrgeRC8CXoF3iGP9o9cqFBo76BXP2AEIfASTwy8V20SOpD5PhJC8BN2jX+DYnxRoDXR7B4k3NrR+1FI8/OWUlX6T99RiPfxHQWqgslwW6viw4dguDbgSnUc212AIJvwjOdzyfj/2b9O3fAQBfb2kf0RO1HkRqSSace/HjB4dsuX5UZ6Ey9hXm7AGMHkCgKPu/wRf+BgF6KhXj0VaP/Lyx7gZ3zQdErPMSMuOCoQ5Vn8CBYbD/828AG9dEZrj8ynNxjv9PMpVcpsGPAuQTQkwOeuQZwQXyc8VSv/82r+4wgHc0RZaaKvuF2eqXEqWfAZgJAVUf9oxbC94AzmzpHMVR+j3STvLKd2Zr0+qWH3cFlCvB6I0EEuFep08ZR4TpAMZBG5RidCtVckbuf8pxQ0R3CCHOyyHqISas5Cj/qm2h/EmOeoViC4BzjolIFwN4oQT95kTJZwCnv/NMAMM1RUdam6rfy1bfCFtUegyGk7yA5NXSyDOhxya+B32yBhsRrkfiP1XPJyRUOaLKkvpVXJMqmhE4OtzlD9+tcdxkG/xdBNxiFY5xIbd8T9vC2lIMPgi8xVBgnEVNQclnAJKkaQaaxGuFTokuv3IjDN4+Av691e3IO4NsmjfkoMuv3gzwHwoRk0G3Sjb1rAZ/5+0ALWKm66D3NRixhYmWXvqefa0ZdwVaLFIwFuc4jlkGRR9O7QtM2ARSnzyA9b6uCUDckGgBW5N8gMLeDG4s8tzVLIaUi2gRB/AHAVra5nG8DACm+I0BrJ/v2OsMqHcS890APhZSvCwJp0zYAxTvAMrm7RNsacrF7dP10dw5iQ2s4RorMGmUBaOTC8BBFdj5uSjkcogwgX9HZF2+wV3zQb7KpULI7VgGFJK8snQoqQJcvoKru1k9T3c0A/lDwNm8fdpj3PlAkvSv0Gwca6yAc7wFNs0db1+oBU5ySGjbHUcks1odAPGKKGK/6U/g6nhCSRWge2TkPLCO9rwnX7DFFVCnMXNa3r7WDN68XCDozbxJo/SDn4JNIkwcbcG2A7qLolRmvimT46bcaPB3nsMsPQHCWCb6j+SsYBpKawWItJ1rzl9/4rSP8EGviAVz+ww4XfswOsc5otHpxz455K1tHujBT0C6H4RzAYwg5gdnPaGelrdJf95W0t4MpguBc96lkytvXx/e3o/vMnhuAGdAew7AEo+LIpJtF49S+wEMIWBL1hmgwa9ciSx5+/r47t3ah4M5CFifpXkUePAkeTaEzZMOIdNQMgWYETg6HGDtrzlm4ZqMJ2lmtnSOYuAxZMvbVyRmNUfOMJbt/Fygx3jVN4Aewdj5ueGiSOb1fXmvGUhzCAHHhwJUsVWfBAL6JBBa9NXbZ8SUlWxz+cN3xyTxNoCztZ+Fo4y23XEcCDNiIvF3oJOxcU8ciiHAykRnD5b0rl3RyMvQnys4u79ZUnOhZArATPoIICPj+u8MKN+DwdvHjJ8FC/D2adG4JjKjTlbfAOgBGPh2KURiwLYDcfxlV+Jv28fpgw8ABHxDslW9Wd+sDPgdwMkI4D80RSQki2mzQMkUgABdEgfOEAGs93VNIMbDhuKtPNbxQKHvaVjdMdLpUx4TQmwEMClDlcOF9mXAOEnCi65AuOgjYqUGgTfrC8zbB5RuE2i0ACx6B1B9iK0WSj/JW7C3j5ka/OFrWbLsTAZ5jEb+5yBeWH3YcSoIv0bu9HECwKNIN1MdYGp2+ZT/unwFF3KM2xQIlnT7AAIPbgVI5uvVrunhEVZ9Eoj+ePsamzvPdvmVEIN+r73SJdULAb+jePysoLv29+tupe6gW/43lsS5IF4O4G0AChIHM7YD+JUQ4rygR76p+rDjEiQUQQ/CTd0j1BfNtsGzwWo1zACMC7SRy1KiJJxAp0+dR8S9d+sYs206A8oUYmxFkSd5p7ew3d6t3gXg7oyJFYjfZcbNIU9tweyeTGgIhN3MtBLGsDFwCOAFQU9t2a0Ep1/5gIBe64ZYuqTVa9+Uq01fUJIZgNJj171T66xmlokpAO1JXsZBSJzzwsWGQKfTHo38HYT7Mgx+BIyfVh+Sz+3v4ANAq7s2IAkxFYAxR8BIgP7q8qlLdNlFywAC6WYBprgpy0CJvpTIegYgTupSXYbQRCqV67LFCOpXhU9x+dVmZiloaJfq+y9WIU0MeuXFxRJNc2FD05Cd1ei6kAjPGD4iEN+1aYL6p4SvozwgNvoDzNkI9lsBEjdl0Ve1ZTZrQgEafOFvMEHv18/C7Vu8mCWnL9wk2Wg7wGk78UR6V7426JWvMOugxDrPyI7WBY65xHQbDGf8Gbiiim1/L5epKCxis6HoYjNmoX53eLBHmQz92vnJ+vmOvTNbOkcx0SroM4S+L6odaQcd6gPh8zdOUF9KUrFGGD4WxPhNFbrOCnlrm/srb14QcavXsVxicRn06eqAhKm4qSGgmHqtHQCE5tfugN6kHd72xfA52er3Ff1WADIwgAgJB1BVj/QIAG16uBgzudvmUW+ih1nNLLt86hKJaRtgSCYFAIy/g2h6q1detM4zMnuGTxOwwTukTYAugDE7CVDDjMdcfrW5mKSRRSNBo3tJW2QhqeTLQP+nFGMImPGqM6B8jxlzdMWMn4WaHL3eQdca5ZsxSd0B4ruQfkKmnZhuG1ntmFqsh7CUaPM49okxjkvA9Iv0T9lrj6qb65+IjDdPAv0+gE1wCPWbEGK0AISEz4npIUNCjNc6VMcSAKj3q2Ml8HIIzM7S5fNWC928fr5jb39lKwWSTqq7GwLhf2YwFb8qxcU2lz9siqkoSZbNQhzzZzF4RqnfUZQfIHEVfORqhvg2IH0V4LFIs53pHcO9umHBlq90qtV76mTl+wDdi8y++w+I+f+2emtNOwvfXzh94fOI6GmknweME+MnrR7HA6W8DyB528pRnRkcp7HBax37S/WOghXA6VPnEPEvAXyxqDcwbpQs0jtCiEehv5svhSgTHuqyOf6jL/f0lBvJuw9WI1OyCuBPoid6bdvC4UdL9T6XX9kMTUiYmf5PyOtoKVX/efcAc1vY4vKrDxHx0yhy8JmxmQjTk4GbDIPPGyUhzg+55XuOh8EHgLaFw48G3Y6riHEPErRxLb4l2apec/rCuU4UFQUG6fYBEomS7gPyKsChaOQXAH+/L50T4UIGrkOWwE3QLdfny9A5KEHErV75fon4G2AY6WsTiOglpy/cVJJ3GRxCDCrpPiDnEpCc9p/WlkkEjK8jjBkiYWh1onlHN2N/p8DudkYGEo4WTMAqxOM/bL126KH+Cj8YMOsJ9bRYnJ+GkQ4HAIxHqo84bu+Px7JhdcdItlgOQpPXoLtbHV6qk8NZFWBuC1cdiqo7oZn2a6zA18ZYUFeduVl7N+OV/XF0ZQ7ubieWbjIjoDHQuHwFV3cPV5eBMqazf9Vqoe/0x6px+ZXt0BwcJeZZrd7akhwczboEHI5GroZm8CXKPfgAUFdN+NoYC4x0fCI0tyuOr/xvHHwgcQlF0CvfzMzXIj0f4LRYjF9vDIQb+/EK4zJQsn1AVgVImHrHML6Ocg5+CnXVhHHD9PVYcJXZqU4GA0Le2mZmvgiAnuNAGCWY/trgU34M5qJD8Oknh0u3D8i+CSRdPj2MHVq403DMEENdogHn2pULIW/tW6InOhXpWU0tTPi5K6CuLZaAylarITDEFxZzm1ouZB9Vlr6gfaytKlxxhxqvOGCc5vKHZw0Uw6bcKLWpGLym5n0CPtYUydirluT6OdPvDAKQvI6N/haLM1x+pZ2AnUx4m0E7SOCVoMe+dbDdqNlvEHErcH9jIPyqELTGQGVLmYo3FRrhTN6N0HvRlCTRDADb+itmjiVAaDWukCPVvejIfcKujoELwbiBmJeCeIsrEHlQW8HlUy9y+dSLCn7hIMYGd+0Gq5WmAGk0eQcRrS6cgEoGgkhpiKK5lgCddu3rKPz43P7OYo/acS9pxOUPLwPxFhBvcQbCOgq5K6BOawyEG+v96tgiXzCgWD/fsbf6sONSMB5J+zBBQN2Yb3kUgo0EkZJsBLMu7Eaip0TAzNNzm4FAwhew8aM4WDNhJLNj1nHClh2a3urYTWIuv9KuqdMe9MjDEuXhZQDdpn0VgB0gbGfQDmKxXUDa0eZx7Msp4ADD6Qs3EdEjMAbEGAcliRdscNduyNQueb/yUWiDb1bLhGLuVs6E3I6gbnWH9maOPjqC9rQrji+nzMBZT6in9QhxjiSkiQD/C4ja4z1iaSrZkssf3ghQ4kYv5heD3tr6RLlOMXKhd49BgnYyibetFmnnYAkvA32PKrr86gZorrsh8HdbPbX5bkDNiZw/Z5dfvdqYdIkIGD8s6QpOWgadUca+ToHdR1n3ywcAJlwVcsvPokA0rAmfLBg/JJaYJPFgijzq9CmbiPo17Q0qxcgZVWQ8J2LRJmNU0eVTFoNwn6bot0GPbLiatjjkte0a/OovGZw1R19OMC8Lemvv6FNbA+pXhU+RbLiLQBdy4iBoXSn6xUAqBjM1+NUfcSLfsZ4VxXifwXNC3tq3UkXOQPjrxGTkSygA7QPEG8zS2pOq7WuLSXSRVwEWL2bpxQmRBwhcVNZqJl4aWiD/wCzzLhGEEWcTS5NY4rOJMel4VYzGQLgxg6kIJFPXhLy1zckbWB+GIRNKGhjvg+jOoMfxx0LeXbB3p8GnXMWEB5E7OzYA7AbojkIFKDWOV8VIRhWfQiZybMKEzFSeFQR6cOYu+935choW5ZeespJtdbWRq1jg20SYkqSESQA+AehlENa2h+1rB6Pf/3hQjDxRxaLBoF+GPI67ctUx/fLowY7BqBiuQNgLpkeRgTtplQDXOAumj7X0xmf2dQi8tC+O0J44YobfOzGubvXKa7O964RXgGwol2IIxnYJtENIYrtNknakFKPBr0zlxNTfO0bD7YTvT7Ph9LrM/rs97QJLX+3BkYhu27VrZJVjYraNYUUBikQZFKODgB0A2hn4eqrQKgGLZ1ZlHfwU9rQL/HRTVD8TEM0Luh1PZapfUYASwWzFmHWGBZ7JtvwVAfj+2YMXPjwWhGSmQMjr8GSqW55o4AmA5NS9F4DugEipFOOi0wq6iAwAMH2sRacARMjKx6gogMnIphgzAkeH11D1xDiLcyTmiQJ0DjHOy+ALAACcaiTZ5EA6eYfHZKtbUYABQjIZ9ebkXy9SMwZAzwLoU1oYNvrjkd0ZV9asFxXkx/r5jr2Jc4a0W1t+oIgQ+/7OtPE+kK1uRQEGKRjiLe3zlr1GZll2bN2XVjfrpV0VBRisYElntoX2xLGnPf8ssKddILhHrwAEZI3GVhRgkKLmiP15AL23lcQEsPTVnpxKkHIExXVV+L2jij2rAlT8AIMYyQCcLqhmyeIK3rovjuCeuGHwwcy4KuSVjRT1XlQUYJCjX3wM0JKgx/GjXDUqS8Agx8xd9rvB9FCRzRhMv7hklz3vzWOVGeA4gcuvXg3mB7Uczczg95jozkJpeBUFOI6QgY9xGhLJmPYC9DoBzx5V7M8ORj5GBRVUUEEFFVRQQQUVVDBY8P8BNZJPUGEG/9AAAAAASUVORK5CYII=;" parent="1" vertex="1">
          <mxGeometry x="1101.65" y="466" width="144" height="144" as="geometry" />
        </mxCell>
        <mxCell id="Kr05i6FKvgyYD7e76daW-23" value="&lt;font style=&quot;font-size: 19px;&quot;&gt;&lt;b&gt;Bi &amp;amp; reporting&lt;/b&gt;&lt;/font&gt;" style="text;html=1;align=center;verticalAlign=middle;whiteSpace=wrap;rounded=0;" parent="1" vertex="1">
          <mxGeometry x="1085.55" y="233.68" width="160" height="30" as="geometry" />
        </mxCell>
        <mxCell id="Kr05i6FKvgyYD7e76daW-25" value="&lt;span style=&quot;font-size: 19px;&quot;&gt;&lt;b&gt;SQL Quires&lt;/b&gt;&lt;/span&gt;" style="text;html=1;align=center;verticalAlign=middle;whiteSpace=wrap;rounded=0;" parent="1" vertex="1">
          <mxGeometry x="1073.79" y="405" width="160" height="30" as="geometry" />
        </mxCell>
        <mxCell id="Kr05i6FKvgyYD7e76daW-26" value="&lt;span style=&quot;font-size: 19px;&quot;&gt;&lt;b&gt;Machine Learning&lt;/b&gt;&lt;/span&gt;" style="text;html=1;align=center;verticalAlign=middle;whiteSpace=wrap;rounded=0;" parent="1" vertex="1">
          <mxGeometry x="1068.1999999999998" y="610" width="210.9" height="30" as="geometry" />
        </mxCell>
        <mxCell id="Kr05i6FKvgyYD7e76daW-33" value="" style="shape=image;verticalLabelPosition=bottom;labelBackgroundColor=default;verticalAlign=top;aspect=fixed;imageAspect=0;image=data:image/png,iVBORw0KGgoAAAANSUhEUgAAAIAAAACACAYAAADDPmHLAAAABHNCSVQICAgIfAhkiAAAAAlwSFlzAAADsQAAA7EB9YPtSQAAABl0RVh0U29mdHdhcmUAd3d3Lmlua3NjYXBlLm9yZ5vuPBoAABdUSURBVHic7V15UFRX9v7obmRpIosrOxIRp8UNoywyjmiCZsGUC0F0iIqoM6Gi468mmXHMlDVW1GQcHSdjVTSJMk4MNTpOOZoxEsW4xOAS44osiiA74sYidts0fX5/dN7Na9Ze3usG+n1Vp3zS95177rvfu/s5zwndQw5gMoDXAUQB8AXgB8DVhHsl2A4aANUAagCcB3AIQC6AVksVKgCsAFAFgCTplVIJYPmPdWkWIgEU9oACSCKMFAAYBxMxD0BzDzBaEmHlCYC56AZJAPQ9wFhJxBE9uiDBOBhYYm8jJRFXngJ44cc6h9OP/yoA5AEIhwRHQD6AMQBaZT/+YRmkynckqAAsAQwtgBxAOQxzewmOg0oAITIAcZAq3xERACBGBsMKnwTHxOsyAJPsbYUEuyFKBqn5d2T4OcEwL3SztyUS7AK1EwyLAxIcFLLuk0joy5AI4OCQCODgkAjg4JAI4OCQCODgkAjg4JAI4OCQCODgkAjg4DD7vLiEn+Dj4wM/Pz+4ubnB09MTSqUSWq0WjY2NaGxsRHl5ORoaGuxtZpfokQRwcnKCr68vXF1doVAooFar0djYKOjD9PX1xbBhw+Du7g5vb28AQENDAxoaGlBSUoL79+8bpQ8PD0dsbCwmT56MUaNGISwsDAMGDOg2n6qqKhQUFODbb7/FsWPH8P3336O11WJnHcHRIzaDQkNDMWvWLMTExCAyMhJBQUHo169fh2nr6upw+/ZtFBYWoqioCN9//z0uXryIp0+fdpmHl5cXkpKS8PrrryMyMhK+vr5dpm9oaMCtW7dQXFyMSZMm4fnnn7e4fHw8ePAAe/bswaeffoqioiJBdFoDuxFAoVBg7ty5WL16NaKioqzS1dLSgh9++AHHjx/HwYMHceXKFfZbcHAw3n//fcybNw+ursK4MzY2NuLWrVsoKirC3bt30dTUhObmZmi1Wmg0Gnh7e8PHxwdBQUEYNWoUVCoVlEqlkQ4iwqFDh7BmzRoUFhYKYpclsAsBoqKisGPHDowb195b6f79+ygrK0NVVRXu3bvH/u7p6QlfX1/4+/sjICAALi4uneovLS3FwYMH0dLSgpUrV8LNzfi4Q0VFBXJzc3Hjxg3U19ejoaEBOp2OVZy3tzf8/PwQExODkJCQdvqzs7OxZs0aXL161aTyKhQKREdHY8aMGUhJSTFqTXQ6HXbu3Il3332321ZMLNjUMeE3v/kN6XQ64qDX6yknJ4fS09MpKCjIJB1yuZxUKhUtWLCAtm3bRjdv3qTuUFpaSu+99x4FBwebZW9AQABlZGTQ2bNnSa/XM32tra2UlZVFAQEBZumTyWT00ksv0ddff21kX2FhIb3wwgv2cBSxXWbbtm0zKvSxY8dozJgxgugOCAigtLQ0+vbbb43yqKmpoQULFpBMJrM6D5VKRZmZmaTVapn+hw8f0htvvGGRvoSEBCPyqtVqmjt3bt8kwDvvvMMK2tLSQm+99ZbgeQQGBlJFRQXL55///Cd5eXkJnk9YWBgdOXLEiGi7d+8mFxcXs3W5ubnR9u3bWeui0+noV7/6Vd8iQExMDLW2thIRkVarpZdfflnwPFxdXenKlSusQrZs2UJOTk6ilis5OZkePXrE8jx58qTFhPvlL3/JWha9Xk8pKSl9gwDOzs5048YN9pCWLl0qSj787mXfvn2iVz4nQUFB9MMPP7C88/LyaPDgwRbpmjlzJj19+pSIiDQaDU2dOrX3E2Dx4sXs4Rw6dEiUPCZOnMhamGvXrpGbm5tNKp8TpVJJhw8fZuW8cuWKxS3BvHnzWFkqKyvJw8OjdxOAa5a1Wi0NGzZMlDxyc3OJyDAyj4qKsmnlc9KvXz+jccHp06fJ2dnZIl2/+93vmJ709PTeS4AJEyYYNcti5DFjxgyWx44dO+xS+Zy4ublRTk4Os2f79u0W6XF2dqba2lpGpF5LgHXr1rGH8eKLL4qSB/fWabVas+f4YoiHh4fR1M7SKeLevXuJiKipqUmQKaxdCHD+/HlWiH79+gmu38/Pjy0q/eMf/7B75XOiUqnoyZMnRGRYJ/Dz8zNbx+9//3tGIrG6TgAk2nkAuVyOMWPGAABOnz4NrVYreB6pqamQy+UAgF27dgmu31Lk5+fjrbfeAmDYMt68ebPZOvi7kdxupVgQhVkjRoxgDN64caMoeVy9epWIDMu8tpr2mSNHjx4lIsO83tzBaWpqKnt+cXFxva8FCAsLY9cFBQWC6x80aBBrYQ4fPgwiEjwPa/H2229Do9HAyckJW7duhZOTU/c3/QiuZQMAvV4vhnkARDwSxj8sUVlZKbj+qVOnsgeanZ0tuH4hUFxcjI8++ggAEBsbi8TERJPvHTx4MLtuamoS3DYONiHA48ePBdf/i1/8AoDh7Th79qzg+oXCli1b0NzcDADIyMgw+b6AgAB2/ejRI8Ht4iAaAfgHIBobGwXXzzX/hYWFor4h1qKurg6ZmZkAgJdeegkjRoww6T6OAGq1GjU1NaLZJxoB+OfezOn7TMWoUaMAADdu3BBct7WQyWTw9fXF0KFD4e3tjb179wIwPIf58+ebpCMwMBCAoRsRcwwg2qFQnU73UyYKYbMZMmQIfHx8ABhO//AREhKC+Ph4REREIDAwEEqlEnV1dbh06RIOHjyI6upqQW3hMHToUCxfvhyvvvoqxo8fD2dn5w7TTZ06FevXr+9Sl1wuR3i4IWzj7du3Bbe1LUSZXmRkZLBpTGRkpKC6IyMjme4VK1aQUqmk5cuXG20HdwS1Wk1//OMfBZ8ypqWlUVNTU5d5cygoKOhWX0REBEv/wQcfiDpVFa0F4I/8AwMDcfnyZcF0Dx06lF0nJiZi06ZN7RZLtFotampq0NzcjODgYCiVSri6umL9+vUYOHAgVq1aJYgtixYtMlqEun37Nr755htUVVWhvr4eMpkMAwYMQGpqKkJCQkwaEE+a9FPgtuvXrwtiZ1cQhVnjxo1jLF65cqWguufPn9/h21VZWUmbNm2i6Ohoo6VnuVxOs2bNoqqqKpZ22rRpVtsxYMAAevz4MRERNTY20ty5c8nV1ZUSEhIoKSmJwsPDWdrvvvuOiIi+/PLLbvXu2LGD2RkSEiJqCyAaAby8vFgh/va3vwmqm3/GgGtWFy9ebFTp7u7u9Je//IWOHz9OWVlZlJSURCqVijQaDRERZWdnW20Hv5ubP38+jR07lhoaGtjf8vPzWdpbt24REVFmZma3ermurLq6WuzKF48AANj5vJMnTwqqNz09nT3kzZs3d7jRxO9HOSQnJ9Pnn39ORIbdw/79+1tlR1ZWFhER3b9/n2QyGfn6+lJRURERGTbAXn31VQIMLdCzZ89M6tMHDx7MDoQcOHBAdAKI6hx67do1AMDYsWMF1cs/P5+VldXhRlNeXh7Wr1/PlohLS0uRm5uLI0eOAACcnZ0xfvx4q+zw8zPE2KysrIRer0dNTQ1Gjx6NqKgo+Pv7s7z4nk7dzelfeeUVyGSGavnqq6+sss8U2IQA3t7eCAoKEkyvWq1m1+7u7p2mW7duHZ5//nm8+OKLUKlUqKioYDYBPy0mWQpuft7S0sL+ptVqcfHiRaPFL/6+yJ07d7rUyS0X6/V6/O9//7PKPlMgqnMo/2GPHTsW5eXlgujlE6A7d6/S0lKjtYJbt25Bo9HA1dUVERERVtlRVlYGwHhW0hH45G+7bsGHi4sLEhISAADnz59HXV2dVfaZAlFbAL6P3sSJEwXTq9Fo2HVbt6/u0Nraivz8fAA/rSZaipKSEgCGae7AgQM7TcffF+mqUuPj4+Hh4QEAOHTokFW2mQpRCVBcXMwONsTGxgqm15wWoCNwLRHXh1uKS5cuseuuyufp6cmu6+vrO003e/Zsdt0nCEBEOHfuHACDQyh/j1soWLLPwC0Hd9d0d4dTp06x1mjOnDmdpuMPUjtze3d3d0dycjIAoKioyGau46KHiPnuu+8AAB4eHlYPujjw33p+d2AqamtrARi6j/79+1tsh1qtxqlTpwAAs2bN6tRj2ZRB69y5c1lLkZWVZbFN5kJ0AuTm5rJroboBawnw7Nkzdt3ZG2kqvvjiCwCGmc68efM6TMM/39dZq5OWlgbAsIlmy/ONohPg0qVL7IELRQBuJxCARWFj+Nur1m5V/+c//2H9OncQtC34+yL8gx4chg8fzg64fPXVV6iqqrLKJnMgOgE0Gg0bLMXHxwtyNoAf3sWSwxL8FoS/bW0J1Go12++PjY012sjhwK9Qf3//dr8vWbKEPZdPP/3UKnvMhU3CxB0/fhyAoeKEGAdwBNDr9aw/NweDBg0CYBicdTUqNxV//etf2QGYtWvXtvudT4C2Mw83NzcsXboUgCFyydGjR622xxzYhABff/01u54xY4bV+rh+9NGjR0arcKYiODgYgGEwSAKcJi4pKcH+/fsBGFby2oa+qa+vZwPBtgRIS0vDkCFDABh8G+wRQUz0DQe5XE4PHz4kIqKcnByr9WVnZxMRUVlZmUX3l5WVERHRkSNHBCtjREQE81I6evRou9/r6uqIiGjPnj3sb87OzlRaWkpEBndwf39/0euirdikBWhtbUVOTg4AIC4url3ELEvBn16ZipCQELY0y1/IsRZ5eXlsLDBz5kzEx8cb/c7Zym30AEBKSgoLQrV7926bDv74sAnTli5dyrZluW1SS2Xfvn1ERPTgwQOz7125ciWzY/LkyYKWMTg4mJ03uHDhgtHRs/v37xMR0d69ew1vnkxG+fn5RET07NkzkwNkiSC2ySggIIA9eEvdpjnZuHEj02WuRzDnTlZbW0tyuVzwcm7dupXZNm/ePAIMbuNcDCDucMzs2bNZuk8++cRelW87AgCgy5cvExFRVVWVVS7PiYmJ7OGlpqaafF9sbCy7b8OGDaKUceDAgVRfX09EhtBvCoXC6HDKypUrSaFQMBdyMQNn9DgCrF27lj2I2NhYi/V4eHgw9+sLFy6YfB93Gkin04kaS+C9995j5VyyZIlRtzNx4kR6++232f937dplz8q3LQFGjhzJCr5lyxardO3atYvpmj59erfphwwZwvrnw4cPi1pOpVJJ9+7dIyKi27dvsyBS1dXVNHjwYDYj0mg0FBoa6jgEAEB5eXlERFRRUWFVNzB8+HAWVq2iooIGDhzYZfo1a9YwwiQkJIhezj/84Q/UFh9++CFt375d9G6oRxNAyIr405/+xHTl5OSQu7t7p2mvXbtGRER37tyxSSwBpVLJ1huIiJqbm2n69OnU0tJCRETl5eWkVCrtXfm2J0BAQAA79frFF19YpcvZ2ZlOnDjBHvLFixc7nE6Fh4ezNJs2bbJZWRMSElhZ7969S6dOnWJ2JCUl2bvi7UMAAHTs2DEiInr69Cl5e3tbpcvLy4suXLhg9Ka9//77RiNr/uBTaDe17mTDhg3tugIhVkN7NQHeeOMN9jDeffddq/Xx+1U+bt68SV9++SXzCCopKaGhQ4daHL/PElEoFHTx4kVmk1arJZVKZe9Kty8BFAoFcxopKysjhUJhsS7+293Q0EA1NTUdkoGPR48e0bZt28jT01PUck6aNIkFseTw+PFjeueddyguLo78/f0pNDSUQkNDKTo6mhYtWkQbN26kAwcO0NWrV6moqIj27NlDzz33XN8iAGA8GLQ0MPKyZcvYCptGo6Fp06aRi4sLLVy4kP79739TWVkZ64M7wuXLl0V7uBMmTGBxf63Fn//8575HAB8fH+ZHV1BQYPaybGJiItt90+l0bNm1raxYsYI9yNraWlq3bh1bkSQS3m+RkzNnzhCRIULYxx9/TFFRUbRhwwa2gNUd+MTduXNn3yMAYDyNW7x4scn3RUZGGj3IX//61x2mmzJlCvPJ0+l0bNrp6urKSPDkyRPBp2ODBg1itrV1BvXw8KCXX36ZVq1aRR999BFt3bqVPvjgA1q7di2lpKRQTEwM7dq1i7VsLS0tYn9JxH4E8PT0ZKti1dXVJkXYDgwMNHLz7mhaJ5fLaf78+WxNnoho9erVRmn4HsY///nPBS3XlClTmG5zpntz5sxhXsRcK9Crg0WbIvwmurtdsf79+7MFHSLj7wKEhoZSamoq7dy5kyorK42a048//ridrkWLFrHfhV4Z5Aew7mrrWyaT0ZgxY+i3v/0t26XkUFtbSzNnzrRFHdiXADKZzGik/Oabb3aYTqFQsMibRES5ubnk5+dH69evp7t371JH0Ov19OGHH7YbXwQEBBiRROgPMyQnJzPdzc3N9M0331BmZibt3LmTPvvsM8rOzqaioiK2N9HW5n/96180ZMgQW9WBfQkAGDaJuAGhWq2mOXPmGP3u4uJC//3vf9lDKi4uprCwMCouLu6w4quqqmj79u00evTodnn5+/vT9evXjdILfTBk9erVHdrVFTQaDR04cIAmTpxo6+dvfwIAoNdee42NfHU6HX3yyScUFxdHSUlJdOnSJfagHjx4QOHh4UZNeGNjIx04cICWLVtGI0aM6DSPxMTEDtcJFi5cKGhZNm/ezHTfuXOn3chfp9NReXk5nT59mrZu3UpJSUmifNyqVxEAAC1cuLDDZpFf+dyIePr06ezvz549o6ysLEpJSaHx48ezTSEXFxdSqVSUkZFB586dM9LV3NzMrj///HNBy8EdWeMihwCG8Yu3tzd5e3tbtfDVpwkAgCZPnmw0T+dw4sSJdnvnf//73zslS2fQ6/WUmZlJaWlp7G/l5eWCloFb+jXnsIpEAJ44OTnRlClTaNWqVbRkyRIaP358p2mTk5ONvtrVGVpbW+no0aNsysffj9Dr9V1uJZsr3AHQ/fv32/1Zdic98vPxRIQzZ87gzJkz3abdt28f9u3bh/DwcERHRyMiIgK+vr7o168f9Ho9KisrkZeXh+PHjxsduyaeQ4iTkxNCQ0ORl5dnte2enp4sWAQXQaQno0cSwBKY61NPbTyCfH19BSEAPx7Q3bt3rdYnNmziGNIT0ZYAXl5egugdPnw4u+4NLYDDEqCtD95zzz0niF4+AYQKiiUmHJYA/CARgHARzaUWoJeAH2wSEO6bBiNHjgRg8Fy2JHiFreGwBGjrWCqEW7ZCoWDxD2wR518IOCwB2rYAQnyVQ6VSsbiFxcXFVuuzBSQC/AghWoAJEyawa4kAPRxtP9wgNAGkLqCHo76+3mgmIEQXEBkZya67CwrdU+CwBCAi3Lt3j/3fmoCRgOEzeVIL0MvAjzDGBWqyFPHx8SzoZHV1NR4+fGiVPlvBoQnAD+A4evRoq3SlpKSway4+cm+AQxOA/9HJKVOmGAVwMgf+/v5GwaJPnDhhtW22hN33pO0l06ZNMzozYOnh0N27dzMdWq2WBg0aZPeymSF2N8BuolAoWJw+IqLdu3ebrYN/AphI+ONlEgFEFv4J3sbGRvLx8TH53oULF7IoJUQGd3cbfOdPIoCQ4ubmRiUlJUZvcHcRRIYNG8Y+GceHORHLepDY3QC7S1xcnNGbvH//fvrZz37GfpfJZDRs2DBKT0+nw4cPM6dUDi0tLZSRkWH3ckgEsEKSk5OZIymH+vp6Ki0t7fKo+rVr1wT3LZQIYCeJiYlp56PXEXQ6HWVnZ1NSUpIo0UZtKU4cCyQYIJfLMXXqVMyePRthYWHw9/eHVqtFXV0dbt68ibNnz+LkyZOCfGegJ0AigIPDoVcCJRgIYH7QfQl9BWoZAPO/uiShr6BKIoBjo0YG4Ly9rZBgN5yTAbDNV4ol9EQccgIgB1AGoP0XDSX0ZVQACJHDsA7wBECife2RYGP8H4DLnD+UAsANACPtZ48EG+ImgLEAWrmFIB2A+QCa7WaSBFvhCYAFAFoB45XAawAWQVoa7svQA3gTwPWuEr0GoAE9YKdKEkGlCcBPJ1e7wTgY+gl7Gy2JMJIHwOzPtisApMMwXbB3ASSxTMoBLIVhqt8hTImKIAcQA+B1ANEAfAH4AXAz4V4JtoMaQDUMS/vnYFjgOwdDv98p/h98748ZiSLYagAAAABJRU5ErkJggg==;" parent="1" vertex="1">
          <mxGeometry x="220" y="-19" width="109" height="109" as="geometry" />
        </mxCell>
        <mxCell id="x_h2AATY7TJWmmIVCSc9-1" value="" style="shape=image;verticalLabelPosition=bottom;labelBackgroundColor=default;verticalAlign=top;aspect=fixed;imageAspect=0;image=data:image/png,iVBORw0KGgoAAAANSUhEUgAAAIAAAACACAYAAADDPmHLAAAABHNCSVQICAgIfAhkiAAAAAlwSFlzAAADsQAAA7EB9YPtSQAAABl0RVh0U29mdHdhcmUAd3d3Lmlua3NjYXBlLm9yZ5vuPBoAAAsNSURBVHic7Z1bkBTVGcd/p+e6O3thbwhxgQXBEhEQL1zFVKoCiWWlYkLUyj3G1YekEpJImZQaCSQmeVAj+uIFYiwTk6gYn0Jw1ZSoXETDRaCiEUGuwrK77C7LzrVPHs4us7PMLjOz3TPd2+dXNTVzerq//mbOv79z+jtnzoBGo9FoNBqNRqPxFqIYJ3l3r5xomOaXQd4opGwC0QhEinHuUvHebvPt5m8Fryu1HxfCVgHs3CkvlkbqfuB2wGfnuZzGhtdNxjaIrc3fDCwotS/DYdhleMfu5E3SSP0XuBOPVX4/J1vl/LV/jr9Vaj+GwxYB7NiVWg6sByrssO8mTp5ikZNFYLkAduxO3oSQD9th262cPMWitX9JbCm1H9mwtJJ27ZKNwLNW2x0NOLU5sLSiTJFajQ77Q+LESGCZAN7dKycC37HK3mjFaZHAMgEYpnkTHu3t54uTIoF1ApDyBqtseQGnRALLBCBhqlW2vIITIoGVncBxFtryDCdb5fxSisBKAeje/wD8efSGSikCfb9uE6FQfsMspRKBFoBNlIVl3secbJXzn/5rcTuGWgA2Mba+sIHW4yeK2zHUArCJsfWFH1vMSKAFYBNlYUHjZwqfblGsSKAFYCPTJoPfX/jxxYgEWgA2Eg4Jrpwxsq/Y7kigBWAzDXVw+TSBGMHkOzsjgRZAEZg0QXDVTDGi5uD4CRbZIQItgCIxtl7w2QUGkyYUHg3saA4smxW8Y3cy/8yHR4nGJCdaobVNcrZXEItJkqncjx9/EW/f9nVrppyPICg5E59P3YKFQhAICIIBCATUdp9PnMvRCwOMPvmbEqSpXidTkEpJUilIJCCegERCEotBb1RtHynhkGBSI0xq7L/+8r4OF43cC4XrBeAzoKpKUFkhqIgIgsH8bRiCc1NZfD44v0LS5XgczvRIus9IurokKbNAxx2CawVgGDB+nEFdjcAoYk8mGITaoKC2RmCa0NYhOf6pielSIbi2Ezh1ikFDXXErfzCGAQ11gqlTXPs1ulcAnV2l9iDN6c5Se1A4rhXAc+uTbN9pEo+XzodYHLbvMHnupWTpnBghru0DxBPw6hspNm1JMXWyweSJgokXC8ZU2/uD59Odkk+OSA4eknx0wCSesPV0tuNaAfQTj8O+D0z2faDKoSA01AtqxwiqqwTVVRApF4RDEA5DWUggDNXbD/R9+kQSUil1K9gbk0SjEI1Bz1lJZxd0dknaT0taT0liJYw4duB6AQwmFocjxyRHjum8VC64tg+gsQYtAI+jBeBxtAA8jhaAx9EC8DiuFUBnR1FWuMsJJ/mSL67NA3y4x08oLBlTK4lUSiJVknABv8YphFiv4Ey3oKdbcLpdEIsKWGbBRIES4FoBAMSighPH0lefPwChsCQUkgRCEApJgmHw+SU+nxq9Uw+JMNJTtpNJlQU0TTXEa5oqM5hKCuJRiMXUczwuiPYKUu5N/Z+HqwUwmGQCkgl1ZWpyw7V9AH+g1B6kcZIv+eLaCHDlvARnugSn2wzOdAvO9gjMIjXDPh+URVS/o6bWpKJK4tZrybUCEAIqqyWV1elaj0YFvT2CeAwScUEiDomEek6lAKnaeWmClJyb4OnzKXuir3+A6BstDEIgINVzUBIMqYoPheSIfujhJFwrgGyEw8W7ExgtuDNuaSxDC8DjaAF4HC0Aj+NaATgp/+4kX/LFtXcBeizAGlwrANBjAVbgagEMRo8F5I9r+wBOyr87yZd8cW0E0GMB1uBaAeixAGtwrQCyoccC8sedcUtjGVoAHkcLwONoAXgcLQCP41oBVFeV2oM0YxzkS764VgBz5xg0NY5s/d2R4vdD0wTB3Dmu/Rrdmwfw+2D6pYJpUwStbZJT7dB+Gs722psHKC8T1NZAfa1aIi6ffwdzIq4VQD9+P4y/SDD+IlVOJgXdPWp9n94o9PZCLC5JJlVWMJ6UfRlBzq3y6esbJURA0C8IBCR+P4SCgrIyKAtDpExQWTGyP4BwIqPs46gKqqmGmozVwoZ6PRSjJM+bA+5tvDSWoAXgcbQAPI4WgMfRAvA4WgAeRwvA42gBeBwtAI+jBeBxtAA8jhaAx9EC8DhaAB5HC8DjWDYfYPUql0+N8Sg6AngcLQCPowXgcbQAPI4WgMdxzazgQACWLoHFi2HiRAiHMt9vb4en1sG2bcPbiURgyedh0UIYN05tO34c3toMr74KZ88Of/yC+XBHs3r91FrYsrWwz+MULJv//JVl0rZfZNTWwn33QFPT8Pu1t0PznUO/P3MmLP+RspeNtjZY8yjs2Tu0jbVPpo+/0Pns5B/rrVmjxPFNQCCQW+VfiNmzlZ2hKh+grg5+eR/MmjX0PgOPH86WW3C8AJYuya3y+5uAbNTUwF0/U2K6EIEA3L1idFRuLji+D3D99ZnlLVth7Tro6Mjdxm3fg4pIupxKwfMvwMaNgIAbvgg3f63v52FAeTl899vwhzUj9d75OD4CTGjMLD+1Nr/Kb2iAhQsyt637I7zwInR1Q1cX/P15tW0gCxdCfX1hPrsJxwtgpCy+Ln1lA/zvI9j4yvn7/Wsj7P84Xfb51LGjHccL4PCRzPIdzapNz5UrZmSWW1rUGoGDkVK9N5AZM87fb7Th+D7AG5tg2tR0ecF89YjG4NAh2PSmqrhEIvvxjYOakL37hj7X3kG3f40XF+azm3B8BGhpgQMHz98eDsGl06D5+/D73w3da6+szCyfOpV+PfhOuvVUZrmqOm93XYfjBZBIwAO/zS6CfiY3wb335Hab18+118DT69Rj3ly1zRgkCJ/jv52R44qP2N4OP/+Fuv378EOIRs/fZ3KTSvEOprs7s9zQoK78H/4AqqqguhpW3AWLFkFd/fDHjkYc3wfoJ5mEf25QD1Ah/47bYd689D7XL06/38/hw5m3c5dPh2PHMjuCPh/85Mfw3n8yjz102NrP4ERcEQGykS3zN2HC+fsN7vQtXaIiwONPpFcLByWCuddm7vv++9b46mQsE0AggCOX6X7zrcyKnjoVvrAUtr0Djzya+d5ATBPe3lwcH/MlFLTuu7ZMAJEKhrgRs4f+JmAgh7OE7NZW2Lwlc1vz7XDrLbBnDzzzbHb7O3fByZPW+Go1ZRFp2XdtWR+gokJ2ne4QlidPF8xXFZZL8mfTm9m3/+kZmDMnPR5gGEoAt94ytK3Zs9TdwbZ3hj/nSy9m357r/IRCqIjQaZUtyyJAXY34t1W2BpJr5u/AQXilJft7HR3w4ENDJ4uy4fMp4RVKtghlFbV18jWrbFnXBJTzUKn+RuXAQZUrSA7zd267d8Ovf5OZCBpMZ2dmnyBbyritrWA3LcEwoLLceNgqe5b9mqOlZdXRG7+08hsd7aLOKpug2uHLp0NZWeb2aFQN3rz8MjzxJPT05GCrFV57XY0CRiIqmyglfHIINmyANY/B/v0w/TI1NezxJ+D4p5k2jh5VYwTl5cOfq78JOHo0v897IS65hH2/WinutcqepdfsmjXy6s1b2R6Pe2ipzSISCiKvmstVd/9U7LTKpqV5gOXLxXuzrjRXjpZ/1HISQsAVM80HrKx8sGlR3JWrzfXv7xZftW+aqLcQAmbO4sVV94ubrbZtSyZw1f3GsqvnmA8ELUxYeJVQEHnNNay2o/LB5mWxH3tMXnbkqPzbR/vFbNO080yjDyGgaYr8eNx4sczqsJ9xHrsMD+TBB+W13WdZ0d7G5870yOqeMyKQSOiO4kACAWSkQiYqInTW1crXKyLGQytWiO2l9kuj0Wg0Go1Go9GMNv4PFbi+z1pZm3QAAAAASUVORK5CYII=;" vertex="1" parent="1">
          <mxGeometry x="1113.65" y="295" width="95" height="95" as="geometry" />
        </mxCell>
        <mxCell id="x_h2AATY7TJWmmIVCSc9-13" value="" style="strokeWidth=2;html=1;shape=mxgraph.flowchart.database;whiteSpace=wrap;fillColor=#ffe6cc;strokeColor=#d79b00;" vertex="1" parent="1">
          <mxGeometry x="265" y="208" width="60" height="60" as="geometry" />
        </mxCell>
        <mxCell id="x_h2AATY7TJWmmIVCSc9-14" value="" style="strokeWidth=2;html=1;shape=mxgraph.flowchart.database;whiteSpace=wrap;fillColor=#f5f5f5;strokeColor=#666666;fontColor=#333333;" vertex="1" parent="1">
          <mxGeometry x="530" y="208" width="60" height="60" as="geometry" />
        </mxCell>
        <mxCell id="x_h2AATY7TJWmmIVCSc9-15" value="" style="strokeWidth=2;html=1;shape=mxgraph.flowchart.database;whiteSpace=wrap;fillColor=#fff2cc;strokeColor=#d6b656;gradientColor=#ffd966;" vertex="1" parent="1">
          <mxGeometry x="800" y="206.68" width="60" height="60" as="geometry" />
        </mxCell>
      </root>
    </mxGraphModel>
  </diagram>
</mxfile>
